<?xml version="1.0" encoding="utf-8"?>
<!-- Generator: Adobe Illustrator 18.0.0, SVG Export Plug-In . SVG Version: 6.00 Build 0)  -->
<!DOCTYPE svg PUBLIC "-//W3C//DTD SVG 1.1 Tiny//EN" "http://www.w3.org/Graphics/SVG/1.1/DTD/svg11-tiny.dtd">
<svg version="1.1" baseProfile="tiny" xmlns="http://www.w3.org/2000/svg" xmlns:xlink="http://www.w3.org/1999/xlink" x="0px"
	 y="0px" viewBox="0 0 350 200" xml:space="preserve">
<g id="Camada_3">
</g>
<g id="Camada_1">
	<path fill="#FF393F" stroke="#E30613" stroke-miterlimit="10" d="M173.967,95.288c0-45.305-36.729-82.034-82.036-82.034
		c-45.306,0-82.035,36.729-82.035,82.034c0,45.31,36.729,82.038,82.035,82.038C137.238,177.326,173.967,140.598,173.967,95.288z"/>
	<g>
		<rect x="151.046" y="121.098" fill="none" width="142.152" height="62.216"/>
	</g>
	<g>
	</g>
	<g>
		<path fill="none" d="M96.597,23.042c1.789,0,3.784-2.115,5.981-6.348c-4.803,0.897-7.202,2.483-7.202,4.761
			C95.376,22.514,95.782,23.042,96.597,23.042z"/>
		<path fill="none" d="M115.396,149.141c8.137,0,15.259-2.035,21.362-6.103c6.103-4.07,9.155-9.277,9.155-15.625
			c0-4.719-1.852-8.99-5.554-12.816c-3.704-3.824-7.794-5.738-12.268-5.738c-3.255,0-6.266,1.099-9.031,3.295l0,0.002
			c-0.648,4.07-1.785,7.977-3.409,11.719l-0.005,0.012c0.979,2.353,3.214,3.527,6.708,3.527c1.465,0,2.726-0.507,3.784-1.525
			c1.057-1.017,1.953-1.525,2.685-1.525c1.057,0,1.587,0.408,1.587,1.221c0,0.815-0.754,1.586-2.258,2.318
			c-1.507,0.732-3.195,1.1-5.066,1.1c-3.234,0-5.865-1.329-7.892-3.979l-0.029,0.073c-2.842,5.859-7.183,11.269-13.027,16.234
			l-0.062,0.07l0.014,0.016c1.545,1.368,2.726,3.541,3.54,6.52C108.396,148.738,111.651,149.141,115.396,149.141z"/>
		<path fill="none" d="M120.767,87.318c0,1.042,0.794,1.96,2.38,2.762c1.587,0.801,3.357,1.2,5.31,1.2
			c5.289,0,10.212-1.32,14.771-3.961c-4.883-2.159-9.725-3.241-14.526-3.241C123.41,84.078,120.767,85.159,120.767,87.318z"/>
		<path fill="none" d="M101.235,142.428l-0.034-0.044l-0.039,0.044c-0.638,0.559-1.356,1.119-2.152,1.679l0.027,0.03
			c1.057,1.383,2.888,2.563,5.493,3.539C103.717,145.234,102.618,143.484,101.235,142.428z"/>
		<path fill="none" d="M119.058,159.762c-1.629,0-2.441,0.488-2.441,1.465c0,1.789,2.644,3.131,7.935,4.027
			C123.086,161.592,121.255,159.762,119.058,159.762z"/>
		<path fill="none" d="M77.836,164.766c-1.431,0-2.54,1.75-3.334,5.25c3.254-0.488,4.883-1.832,4.883-4.029
			C79.385,165.172,78.868,164.766,77.836,164.766z"/>
		<path fill="none" d="M85.183,112.764c0.69,2.441,1.484,3.662,2.38,3.662c1.057,0,1.587-0.69,1.587-2.074
			c0-3.336-1.669-6.266-5.005-8.789C84.146,107.924,84.491,110.322,85.183,112.764z"/>
		<path fill="none" d="M100.015,140.84c-0.977-0.814-1.709-1.221-2.197-1.221c-0.652,0-0.977,0.324-0.977,0.977
			c0,0.406,0.366,1.18,1.099,2.32L100.015,140.84z"/>
		<path fill="none" d="M74.197,84.408c4.761-2.06,7.141-4.259,7.141-6.602c0-1.775-1.425-3.208-4.272-4.299
			c-2.85-1.091-5.901-1.637-9.155-1.637c-9.93,0-18.189,3.876-24.78,11.627c5.045,2.667,10.538,3.998,16.479,3.998
			C64.572,87.496,69.436,86.468,74.197,84.408z"/>
		<path fill="#FFFFFF" d="M165.2,103.57c-4.803-7.166-11.23-12.703-19.287-16.613c5.533-4.07,9.907-9.546,13.122-16.428
			c2.301-4.927,3.764-10.014,4.418-15.254c-0.5-0.88-1.006-1.756-1.537-2.615c-0.382,6.29-1.848,12.302-4.419,18.029
			c-3.021,6.725-7.223,11.961-12.61,15.707c-5.468-2.521-11.223-3.784-17.261-3.784c-5.55,0-8.324,1.669-8.324,5.005
			c0,3.174,3.344,4.761,10.035,4.761c5.546,0,10.563-1.505,15.051-4.517c7.667,3.988,13.765,9.604,18.294,16.845
			c3.783,6.052,5.962,12.333,6.585,18.838c0.758-2.102,1.424-4.247,2.011-6.424C170.132,112.44,168.115,107.921,165.2,103.57z
			 M128.457,91.28c-1.953,0-3.723-0.398-5.31-1.2c-1.587-0.801-2.38-1.72-2.38-2.762c0-2.159,2.644-3.241,7.935-3.241
			c4.801,0,9.644,1.082,14.526,3.241C138.669,89.96,133.746,91.28,128.457,91.28z"/>
		<path fill="#FFFFFF" d="M35.532,36.312c-0.45,2.328-0.703,4.697-0.703,7.117c0,11.313,3.784,16.968,11.352,16.968l1.709-0.549
			l-1.709-0.549c-3.094,0-5.535-1.318-7.324-3.956c-1.791-2.638-2.686-6.393-2.686-11.265c0-3.318,0.451-6.502,1.301-9.568
			C36.814,35.097,36.171,35.703,35.532,36.312z"/>
		<path fill="#FFFFFF" d="M95.864,24.385c3.01,0,5.859-2.604,8.545-7.813c2.277-0.324,4.272-0.488,5.981-0.488
			c0.559,0,1.112,0.019,1.66,0.048c-2.853-0.714-5.768-1.268-8.731-1.674c-6.266,1.564-9.409,4.094-9.409,7.598
			C93.911,23.609,94.562,24.385,95.864,24.385z M102.578,16.695c-2.197,4.232-4.192,6.348-5.981,6.348
			c-0.814,0-1.221-0.528-1.221-1.587C95.376,19.178,97.775,17.591,102.578,16.695z"/>
		<path fill="#FFFFFF" d="M92.404,177.736c1.177-0.005,2.347-0.035,3.512-0.089c1.398-1.23,2.684-2.553,3.855-3.969
			c4.639-5.615,6.958-11.883,6.958-18.799c0-1.547-0.164-3.297-0.488-5.25c3.254,0.65,6.428,0.977,9.522,0.977
			c8.057,0,15.32-2.224,21.79-6.672c6.47-4.447,9.705-9.648,9.705-15.607c0-5.305-1.953-10.058-5.859-14.262
			c-3.906-4.203-8.261-6.305-13.061-6.305c-3.33,0-6.334,0.893-9.015,2.674c0.392-2.867,0.592-5.225,0.592-7.069
			c0-6.428-2.308-16.194-6.924-29.297l-0.002-0.011c1.53-0.485,2.783-0.969,3.752-1.454c0.977,0.652,1.789,0.977,2.441,0.977
			c0.977,0,1.831-0.488,2.564-1.465c0.65-0.162,1.221-0.244,1.709-0.244c0.65,0,1.057,0.164,1.221,0.488l0.61,0.732
			c0,1.221,0.152,1.751,0.461,1.587l0.691,0.366c0.614,0,0.923-0.406,0.923-1.221c0-0.488-0.179-1.038-0.538-1.648
			c-0.358-0.61-1.968-1.118-4.833-1.526l0.238-0.732l1.913-0.854c0.319,0.244,0.837,0.366,1.557,0.366
			c1.434,0,2.151-0.719,2.151-2.159l0.488-1.015h0.977c1.057,0,1.667-0.406,1.831-1.221l0.122-0.61l0.494-0.732
			c3.134-2.197,5.361-4.517,6.681-6.958c1.32-2.441,1.98-6.836,1.98-13.184c0-6.937-2.084-13.018-6.232-18.25
			c-2.369-1.42-4.819-2.718-7.335-3.898c1.294,0.951,2.543,2.021,3.741,3.227c5.655,5.697,8.484,12.451,8.484,20.264
			c0,4.232-0.444,7.305-1.329,9.216c-0.885,1.913-2.193,3.662-3.923,5.249c-1.732,1.587-2.758,2.991-3.078,4.211l-1.328-0.244
			c-0.967,0-1.45,0.498-1.45,1.494l-0.25,0.948c-0.336-0.324-1.003-0.488-2.006-0.488c-1.589,0-2.382,0.652-2.382,1.953
			l-1.587,1.709l-0.977-0.488c1.301-1.709,1.953-3.081,1.953-4.114c0-1.488-0.513-2.233-1.537-2.233
			c-0.685,0-1.026,0.315-1.026,0.942c0,0.629,0.202,1.082,0.61,1.356c0.406,0.275,0.61,0.648,0.61,1.12
			c0,0.57-0.775,1.385-2.319,2.441c-0.732,0-1.364,0.305-1.892,0.916c-0.53,0.61-0.793,1.324-0.793,2.136l-0.244,0.488
			c-0.637,0.319-1.785,0.715-3.43,1.188c-2.433-7.326-3.65-12.935-3.65-16.813c0-7.08,3.784-12.898,11.352-17.456l0.977-0.61
			l-0.488-0.488c-5.789,2.523-10.151,3.784-13.084,3.784c-1.875,0-3.851-0.385-5.93-1.16c-2.079-0.772-5.301-2.869-9.661-6.287
			c-4.36-3.418-7.927-5.615-10.698-6.592c-2.771-0.977-5.42-1.465-7.948-1.465c-6.767,0-12.676,2.34-17.731,7.019
			c-5.054,4.681-7.58,10.601-7.58,17.761c0,4.395,1.221,7.916,3.662,10.559c2.442,2.645,5.289,3.967,8.545,3.967
			c3.174,0,5.756-0.773,7.751-2.319c1.993-1.545,2.991-3.62,2.991-6.226c0-2.197-0.404-3.296-1.21-3.296
			c-0.415,0-0.622,0.242-0.622,0.725c0.324,1.448,0.488,2.373,0.488,2.773c0,2.012-0.814,3.662-2.441,4.948
			c-1.629,1.288-3.744,1.93-6.348,1.93c-2.93,0-5.453-1.16-7.568-3.479c-2.117-2.319-3.174-5.146-3.174-8.484
			c0-4.801,1.736-8.707,5.209-11.719c3.471-3.01,7.618-4.517,12.44-4.517c2.777,0,5.085,0.427,6.923,1.282
			c1.839,0.854,3.9,2.178,6.19,3.967c2.287,1.791,4.431,3.155,6.433,4.089c2.003,0.937,4.597,1.404,7.784,1.404
			c5.228,0,10.662-1.057,16.3-3.174c-7.894,7.162-11.841,15.259-11.841,24.292c0,2.653,0.479,6.503,1.432,11.54
			c-0.031,0.02-0.059,0.037-0.089,0.057c-11.23,7.244-17.416,15.179-18.555,23.803c-5.047-2.847-10.01-4.272-14.893-4.272h-0.854
			c-0.156-0.568-0.626-0.854-1.408-0.854c-0.862,0-1.41,0.366-1.644,1.099l-2.197,0.244c-0.236-0.813-0.788-1.221-1.652-1.221
			c-1.259,0-1.888,0.692-1.888,2.075l-1.953,0.732c0-1.627-0.732-2.441-2.197-2.441c-1.547,0-2.319,0.732-2.319,2.197
			c0,0.57,0.366,1.181,1.099,1.832l-1.831,0.732c-0.326-0.324-0.732-0.488-1.221-0.488c-1.141,0-1.709,0.479-1.709,1.434
			c-4.477,2.391-8.749,3.785-12.817,4.182c0-9.057,2.365-16.705,7.099-22.95c5.302,2.686,11.053,4.028,17.256,4.028
			c5.384,0,10.565-1.187,15.543-3.561c4.976-2.375,7.465-5.037,7.465-7.986c0-2.211-1.282-4.093-3.845-5.65
			c-2.564-1.556-6.287-2.335-11.169-2.335c-10.418,0-19.165,4.395-26.245,13.184C35.153,78.829,30.496,73.702,27.2,67.11
			c-2.368-4.735-3.87-9.769-4.537-15.092c-0.368,0.584-0.736,1.169-1.09,1.763c0.775,4.789,2.234,9.388,4.396,13.793
			C29.34,74.444,34.083,79.83,40.2,83.732c-4.803,6.424-7.202,14.433-7.202,24.027c-3.616,0-6.676-0.59-9.182-1.771
			c-2.506-1.179-3.757-2.665-3.757-4.456c0-0.555,0.507-1.05,1.526-1.485c1.017-0.435,1.526-0.931,1.526-1.488
			c0-1.11-0.652-1.665-1.953-1.665c-1.709,0-2.563,0.977-2.563,2.93c0,5.859,4.801,8.789,14.404,8.789
			c0,7,2.115,12.574,6.348,16.725c4.23,4.15,9.968,6.225,17.212,6.225c6.184,0,10.904-1.545,14.16-4.639
			c3.254-3.092,4.883-5.41,4.883-6.957l-0.488-0.488l-0.854,1.098c-4.559,6.43-10.296,9.645-17.212,9.645
			c-6.348,0-11.597-2.145-15.747-6.434c-4.15-4.288-6.226-9.346-6.226-15.174c4.068-0.406,8.503-1.666,13.306-3.783l0.977,0.244
			c1.139,0,1.709-0.529,1.709-1.588l1.587-0.732c0.25,1.141,1.087,1.709,2.51,1.709c1.337,0,2.006-0.625,2.006-1.879
			c0-0.469-0.164-0.859-0.488-1.172l1.709-0.489l1.465,0.489c1.057,0,1.709-0.529,1.953-1.587l1.953-0.244
			c0.234,0.488,0.704,0.732,1.408,0.732c0.939,0,1.488-0.324,1.644-0.977h1.099c4.883,0,9.684,1.507,14.404,4.517
			c-0.164,0.652-0.244,1.668-0.244,3.051c0,2.93,0.578,5.494,1.734,7.691c1.156,2.197,2.52,3.295,4.091,3.295
			c1.568,0,2.354-1.422,2.354-4.271c0-3.254-1.995-6.51-5.981-9.766c1.221-8.219,7.038-15.95,17.456-23.194
			c0.324,1.221,1.404,4.965,3.235,11.23c1.831,6.268,2.747,11.76,2.747,16.479c0,14.486-2.319,24.902-6.958,31.25l-0.087,0.146
			l-0.035-0.04c-1.547-1.047-2.768-1.57-3.662-1.57c-1.059,0-1.587,0.527-1.587,1.58c0,1.133,0.568,2.388,1.709,3.765l0.007,0.009
			c-1.785,1.673-4.307,3.304-7.576,4.9c-0.488,0-1.892-1.391-4.211-4.169c-2.319-2.782-5.127-4.858-8.423-6.226
			c-3.296-1.371-6.775-2.057-10.437-2.057c-8.057,0-15.686,2.455-22.888,7.367c-3.993,2.721-7.396,5.928-10.251,9.586
			c1.088,1.117,2.199,2.211,3.348,3.266c1.436-1.248,2.986-2.402,4.681-3.433c5.547-3.378,11.583-5.066,18.11-5.066
			c3.916,0,7.688,1.322,11.32,3.968c3.629,2.644,5.445,4.456,5.445,5.433c-1.629,2.1-2.441,3.402-2.441,3.906l0.488,0.244
			c4.219-4.314,8.623-7.65,13.208-10.01c4.538-2.337,8.061-4.513,10.573-6.529l0.022,0.027c1.301,1.781,3.58,3.279,6.836,4.495
			c0.488,1.943,0.732,3.927,0.732,5.952c0,6.157-2.413,11.902-7.234,17.233C96.622,174.355,94.622,176.133,92.404,177.736z
			 M67.91,71.871c3.254,0,6.306,0.545,9.155,1.637c2.848,1.091,4.272,2.523,4.272,4.299c0,2.342-2.38,4.541-7.141,6.602
			c-4.761,2.06-9.624,3.088-14.587,3.088c-5.941,0-11.435-1.332-16.479-3.998C49.722,75.747,57.981,71.871,67.91,71.871z
			 M89.15,114.352c0,1.385-0.53,2.074-1.587,2.074c-0.896,0-1.69-1.221-2.38-3.662c-0.692-2.441-1.038-4.84-1.038-7.201
			C87.481,108.086,89.15,111.016,89.15,114.352z M96.841,140.596c0-0.652,0.324-0.977,0.977-0.977c0.488,0,1.221,0.406,2.197,1.221
			l-2.075,2.076C97.207,141.775,96.841,141.002,96.841,140.596z M99.038,144.137l-0.027-0.03c0.796-0.56,1.514-1.121,2.152-1.679
			l0.039-0.044l0.034,0.044c1.383,1.057,2.481,2.807,3.296,5.248C101.926,146.699,100.095,145.519,99.038,144.137z M102.09,141.414
			l-0.014-0.016l0.062-0.07c5.844-4.965,10.185-10.375,13.027-16.234l0.029-0.073c2.028,2.65,4.658,3.979,7.892,3.979
			c1.871,0,3.559-0.367,5.066-1.1c1.505-0.732,2.258-1.504,2.258-2.318c0-0.813-0.53-1.221-1.587-1.221
			c-0.732,0-1.629,0.509-2.685,1.525c-1.059,1.019-2.319,1.525-3.784,1.525c-3.493,0-5.728-1.174-6.708-3.527l0.005-0.012
			c1.624-3.742,2.76-7.648,3.409-11.719l0-0.002c2.765-2.196,5.776-3.295,9.031-3.295c4.475,0,8.564,1.914,12.268,5.738
			c3.702,3.826,5.554,8.098,5.554,12.816c0,6.348-3.052,11.555-9.155,15.625c-6.104,4.068-13.226,6.103-21.362,6.103
			c-3.744,0-7-0.402-9.766-1.207C104.815,144.955,103.635,142.782,102.09,141.414z"/>
		<path fill="#FFFFFF" d="M131.667,165.621c-2.121,0-3.547-0.082-4.282-0.244c-2.201-4.639-5.219-6.959-9.052-6.959
			c-2.121,0-3.182,0.732-3.182,2.197c0,2.766,3.336,4.598,10.01,5.494c0.515,1.03,0.824,2.451,0.931,4.249
			c0.789-0.36,1.575-0.726,2.351-1.111c-0.163-0.973-0.401-1.898-0.719-2.773c0.893,0.162,2.396,0.244,4.507,0.244
			c0.318,0,0.632-0.015,0.948-0.022c0.699-0.406,1.396-0.814,2.082-1.239C134.081,165.564,132.884,165.621,131.667,165.621z
			 M116.616,161.227c0-0.977,0.813-1.465,2.441-1.465c2.197,0,4.028,1.83,5.493,5.492
			C119.26,164.357,116.616,163.016,116.616,161.227z"/>
		<path fill="#FFFFFF" d="M78.742,163.424c-1.16,0-2.258,0.65-3.292,1.953c-1.034,1.301-1.716,2.887-2.046,4.76h-2.075
			c-1.953,0-3.948-0.447-5.981-1.342c-2.035-0.896-4.681-2.973-7.935-6.227c-3.256-3.256-5.758-5.27-7.507-6.042
			c-1.751-0.774-3.439-1.159-5.066-1.159c-2.538,0-4.69,0.779-6.465,2.321c0.262,0.227,0.521,0.456,0.785,0.68
			c1.509-1.264,3.108-1.904,4.8-1.904c2.11,0,4.948,1.832,8.517,5.494c3.975,3.986,7.381,6.53,10.219,7.629
			c2.838,1.099,5.638,1.648,8.396,1.648c1.053,0,1.823-0.082,2.312-0.244c0,1.632,0.157,3.19,0.435,4.69
			c0.35,0.079,0.697,0.167,1.048,0.242c-0.247-1.181-0.385-2.376-0.385-3.591v-1.709c4.15-0.732,6.225-2.482,6.225-5.248
			C80.727,164.074,80.066,163.424,78.742,163.424z M74.502,170.016c0.793-3.5,1.903-5.25,3.334-5.25
			c1.032,0,1.549,0.406,1.549,1.221C79.385,168.184,77.756,169.527,74.502,170.016z"/>
	</g>
</g>
<g id="Camada_2">
	<g>
		<path d="M180.497,176.212v-1.328c2.627,0,3.94-0.914,3.94-2.742c0-0.521-0.117-1.109-0.352-1.762l-4.257-12.723h-14.71
			l-3.127,9.201c-0.781,2.323-1.172,4.006-1.172,5.05c0,1.932,1.208,2.924,3.622,2.976v1.328h-11.836v-1.328
			c1.694-0.234,3.01-0.796,3.949-1.684c0.938-0.887,1.89-2.727,2.855-5.52l12.671-37.796h4.716l13.304,39.479
			c0.782,2.323,1.597,3.823,2.443,4.503c0.848,0.678,2.209,1.018,4.086,1.018v1.328H180.497z M165.968,154.845h12.92l-6.496-19.414
			L165.968,154.845z"/>
		<path d="M216.083,155.001h-3.711v12.604c0,2.713,0.384,4.605,1.152,5.675c0.768,1.069,2.129,1.605,4.082,1.605v1.328h-16.484
			v-1.328c2.031,0,3.404-0.534,4.121-1.603c0.716-1.069,1.074-2.959,1.074-5.67v-28.736c0-2.711-0.352-4.581-1.055-5.61
			c-0.703-1.029-2.084-1.545-4.141-1.545v-1.328h18.789c4.635,0,8.34,1.127,11.113,3.379c2.773,2.253,4.16,5.124,4.16,8.613
			c0,5.625-3.151,9.375-9.453,11.25c1.384,0.886,2.735,2.102,4.054,3.651c1.318,1.55,3.047,4.124,5.185,7.724
			c2.397,3.992,4.271,6.609,5.621,7.852c1.349,1.244,2.75,1.918,4.203,2.023v1.328h-9.375c-1.928-2.32-4.258-5.725-6.992-10.213
			c-2.917-4.723-5.202-7.735-6.855-9.041C219.917,155.653,218.088,155.001,216.083,155.001z M217.177,132.149h-4.805v20.938h5.625
			c3.359,0,5.996-0.963,7.91-2.891c1.914-1.927,2.871-4.479,2.871-7.656c0-3.099-1.061-5.605-3.184-7.52
			C223.472,133.106,220.666,132.149,217.177,132.149z"/>
		<path d="M273.505,132.618h-6.953v35.228c0,2.764,0.338,4.627,1.016,5.592c0.677,0.964,1.992,1.446,3.945,1.446v1.328h-16.211
			v-1.328c2.016,0,3.386-0.554,4.109-1.661c0.724-1.108,1.086-2.979,1.086-5.611v-34.993h-6.641c-3.178,0-5.488,0.508-6.934,1.523
			c-1.445,1.016-2.26,2.695-2.441,5.039h-1.367v-10.508h1.367c1.224,1.146,3.516,1.719,6.875,1.719h24.023
			c3.463,0,5.885-0.572,7.266-1.719h1.445v10.508h-0.898c-0.573-2.525-1.596-4.251-3.066-5.176
			C278.654,133.081,276.447,132.618,273.505,132.618z"/>
	</g>
	<g>
		<path d="M186.62,95.306c0-6.797,2.344-12.467,7.031-17.012c4.688-4.544,10.533-6.816,17.539-6.816
			c6.797,0,12.545,2.305,17.246,6.914c4.7,4.609,7.051,10.248,7.051,16.914c0,6.797-2.37,12.539-7.109,17.227
			c-4.74,4.688-10.534,7.031-17.383,7.031c-6.823,0-12.592-2.344-17.305-7.031C188.977,107.845,186.62,102.103,186.62,95.306z
			 M193.651,95.384c0,6.693,1.588,12.104,4.766,16.231c3.177,4.128,7.344,6.191,12.5,6.191c5.208,0,9.434-2.109,12.676-6.328
			c3.242-4.219,4.863-9.479,4.863-15.781c0-6.771-1.589-12.207-4.766-16.309c-3.178-4.102-7.292-6.152-12.344-6.152
			c-5.365,0-9.655,2.019-12.871,6.055C195.259,83.327,193.651,88.691,193.651,95.384z"/>
		<path d="M257.909,97.22h-3.711v12.603c0,2.713,0.384,4.606,1.152,5.675c0.768,1.069,2.129,1.604,4.082,1.604v1.328h-16.484v-1.328
			c2.031,0,3.404-0.534,4.121-1.603c0.716-1.069,1.074-2.959,1.074-5.67V81.094c0-2.711-0.352-4.581-1.055-5.61
			c-0.703-1.029-2.084-1.545-4.141-1.545V72.61h18.789c4.635,0,8.34,1.127,11.113,3.379c2.773,2.253,4.16,5.124,4.16,8.613
			c0,5.625-3.151,9.375-9.453,11.25c1.384,0.886,2.735,2.103,4.054,3.651c1.318,1.55,3.047,4.124,5.185,7.724
			c2.397,3.992,4.271,6.609,5.621,7.853c1.349,1.244,2.75,1.918,4.203,2.022v1.328h-9.375c-1.928-2.32-4.258-5.725-6.992-10.213
			c-2.917-4.723-5.202-7.735-6.855-9.041C261.743,97.872,259.914,97.22,257.909,97.22z M259.003,74.368h-4.805v20.938h5.625
			c3.359,0,5.996-0.963,7.91-2.891c1.914-1.927,2.871-4.479,2.871-7.656c0-3.099-1.061-5.605-3.184-7.519
			C265.298,75.325,262.492,74.368,259.003,74.368z"/>
		<path d="M306.386,72.61v1.328c-1.953,0-3.308,0.535-4.063,1.604c-0.756,1.068-1.133,2.971-1.133,5.708v28.58
			c0,2.737,0.377,4.634,1.133,5.689c0.755,1.056,2.109,1.583,4.063,1.583v1.328h-16.484v-1.328c2.005,0,3.372-0.521,4.102-1.563
			c0.728-1.043,1.094-2.946,1.094-5.709V81.25c0-2.815-0.358-4.737-1.074-5.767c-0.717-1.029-2.09-1.545-4.121-1.545V72.61H306.386z
			"/>
	</g>
	<g>
	</g>
	<g>
	</g>
	<g>
	</g>
	<g>
	</g>
	<g>
	</g>
	<g>
	</g>
</g>
</svg>
