<?xml version="1.0" encoding="utf-8"?>
<!-- Generator: Adobe Illustrator 16.0.3, SVG Export Plug-In . SVG Version: 6.00 Build 0)  -->
<!DOCTYPE svg PUBLIC "-//W3C//DTD SVG 1.1//EN" "http://www.w3.org/Graphics/SVG/1.1/DTD/svg11.dtd">
<svg version="1.1" xmlns="http://www.w3.org/2000/svg" xmlns:xlink="http://www.w3.org/1999/xlink" x="0px" y="0px" width="350px"
	 height="200px" viewBox="0 0 350 200" enable-background="new 0 0 350 200" xml:space="preserve">
<g id="Camada_3">
</g>
<g id="Camada_1">
	<path fill="#FF393F" stroke="#E30613" stroke-miterlimit="10" d="M173.967,95.288c0-45.305-36.729-82.034-82.036-82.034
		c-45.306,0-82.035,36.729-82.035,82.034c0,45.31,36.729,82.038,82.035,82.038C137.238,177.326,173.967,140.598,173.967,95.288z"/>
	<rect x="151.046" y="121.098" fill="none" width="142.152" height="62.216"/>
	<g>
		<defs>
			<path id="SVGID_1_" d="M174.119,95.707c0-45.305-36.729-82.034-82.037-82.034c-45.306,0-82.035,36.729-82.035,82.034
				c0,45.309,36.729,82.038,82.035,82.038C137.39,177.744,174.119,141.016,174.119,95.707z"/>
		</defs>
		<clipPath id="SVGID_2_">
			<use xlink:href="#SVGID_1_"  overflow="visible"/>
		</clipPath>
		<g clip-path="url(#SVGID_2_)">
			<path fill="#FFFFFF" d="M26.654,165.01c-0.408-1.221-0.776-4.027-1.101-8.422c-0.326-4.395-0.814-6.918-1.467-7.568
				c0-0.488,0.294-0.958,0.881-1.404c0.587-0.448,1.217-0.672,1.888-0.672c0.839,0,1.259,0.447,1.259,1.344
				c0,0.65-0.225,1.565-0.671,2.746c-0.448,1.179-0.671,2.746-0.671,4.699s0.244,4.273,0.732,6.959l1.463,3.783
				c5.518,13.672,16.92,20.508,34.208,20.508c5.031,0,9.907-0.732,14.622-2.197c-2.93-3.906-4.395-8.504-4.395-13.793
				c-0.488,0.162-1.259,0.244-2.312,0.244c-2.758,0-5.558-0.55-8.396-1.648c-2.838-1.099-6.245-3.643-10.219-7.629
				c-3.569-3.662-6.407-5.494-8.517-5.494c-1.785,0-3.467,0.703-5.049,2.109c-1.583,1.404-2.373,2.951-2.373,4.637
				c0,1.932,0.488,2.898,1.465,2.898c0.406,0,1.057-0.164,1.953-0.488c0.813,0,1.221,0.509,1.221,1.527
				c0,0.935-0.732,1.402-2.197,1.402c-0.732,0-1.526-0.453-2.38-1.354c-0.854-0.906-1.282-1.972-1.282-3.204
				c0-2.301,0.916-4.314,2.747-6.037c1.831-1.727,4.089-2.588,6.775-2.588c1.627,0,3.315,0.385,5.066,1.159
				c1.749,0.772,4.251,2.786,7.507,6.042c3.254,3.254,5.899,5.33,7.935,6.227c2.033,0.895,4.028,1.342,5.981,1.342h2.075
				c0.33-1.873,1.013-3.459,2.046-4.76c1.034-1.303,2.133-1.953,3.292-1.953c1.324,0,1.985,0.65,1.985,1.953
				c0,2.766-2.075,4.516-6.226,5.248v1.709c0,4.23,1.499,8.26,4.5,12.086c8.106-2.686,14.57-6.695,19.394-12.024
				c4.822-5.331,7.234-11.076,7.234-17.233c0-2.025-0.244-4.009-0.732-5.952c-3.256-1.216-5.535-2.714-6.836-4.495l-0.977-1.216
				c-1.141-1.377-1.709-2.632-1.709-3.765c0-1.053,0.528-1.58,1.587-1.58c0.895,0,2.115,0.523,3.662,1.57l1.465,1.689
				c1.545,1.368,2.726,3.541,3.54,6.52c2.766,0.805,6.021,1.207,9.766,1.207c8.137,0,15.259-2.035,21.362-6.104
				c6.104-4.07,9.155-9.277,9.155-15.625c0-4.719-1.852-8.99-5.554-12.816c-3.704-3.824-7.793-5.738-12.268-5.738
				c-3.256,0-6.268,1.1-9.033,3.297c-4.15,3.256-5.291,7.162-3.418,11.719c0.977,2.361,3.214,3.539,6.714,3.539
				c1.465,0,2.726-0.507,3.784-1.525c1.057-1.017,1.953-1.525,2.686-1.525c1.057,0,1.587,0.408,1.587,1.221
				c0,0.814-0.753,1.586-2.258,2.318c-1.507,0.732-3.195,1.1-5.066,1.1c-3.256,0-5.901-1.344-7.935-4.029
				c-1.629-2.115-1.873-4.922-0.732-8.422c0.732-2.277,2.359-4.313,4.883-6.104c2.686-1.789,5.695-2.686,9.033-2.686
				c4.801,0,9.155,2.102,13.062,6.305c3.906,4.204,5.859,8.957,5.859,14.262c0,5.959-3.235,11.16-9.705,15.607
				c-6.47,4.448-13.733,6.672-21.79,6.672c-3.094,0-6.268-0.326-9.521-0.977c0.324,1.953,0.488,3.703,0.488,5.25
				c0,6.916-2.319,13.184-6.958,18.799s-11.068,9.766-19.287,12.451c5.777,5.289,12.939,7.934,21.484,7.934
				c7.055,0,12.848-2.096,17.376-6.286c4.528-4.192,6.794-9.503,6.794-15.931c0-2.523-0.326-4.436-0.977-5.736
				c-6.674-0.896-10.01-2.729-10.01-5.494c0-1.465,1.061-2.197,3.182-2.197c3.833,0,6.851,2.32,9.052,6.959
				c0.734,0.162,2.161,0.244,4.282,0.244c10.113,0,18.942-3.705,26.487-11.109c7.545-7.406,11.318-16.439,11.318-27.1
				c0-7.893-2.264-15.461-6.792-22.705c-4.528-7.242-10.626-12.857-18.293-16.845c-4.488,3.012-9.504,4.517-15.051,4.517
				c-6.691,0-10.035-1.587-10.035-4.761c0-3.336,2.773-5.005,8.324-5.005c6.039,0,11.793,1.263,17.261,3.784
				c5.387-3.746,9.588-8.982,12.61-15.707c3.019-6.725,4.53-13.838,4.53-21.339c0-14.021-5.005-26.081-15.015-36.183
				C137.002,3.069,123.33-3.569,105.996-6.743c0.977,2.768,1.465,5.779,1.465,9.033c0,4.07-0.652,7.977-1.953,11.719
				c1.953-0.324,3.458-0.488,4.517-0.488c8.381,0,15.543,2.93,21.484,8.789c5.939,5.859,8.911,12.939,8.911,21.24
				c0,6.348-0.66,10.742-1.98,13.184s-3.547,4.761-6.681,6.958l-0.494,0.732l-0.122,0.61c-0.164,0.814-0.774,1.221-1.831,1.221
				h-0.977l-0.488,1.015c0,1.44-0.717,2.159-2.151,2.159c-0.719,0-1.238-0.122-1.557-0.366l-1.913,0.854l-0.238,0.732
				c2.865,0.408,4.475,0.916,4.833,1.526c0.359,0.61,0.538,1.16,0.538,1.648c0,0.814-0.309,1.221-0.923,1.221l-0.69-0.366
				c-0.309,0.164-0.461-0.366-0.461-1.587l-0.61-0.732c-0.164-0.324-0.57-0.488-1.221-0.488c-0.488,0-1.059,0.082-1.709,0.244
				c-0.732,0.977-1.587,1.465-2.563,1.465c-0.652,0-1.465-0.324-2.441-0.977c-0.977,0.488-2.239,0.977-3.784,1.465
				c-2.117,0.652-5.859,2.85-11.23,6.592c-10.418,7.244-16.235,14.975-17.456,23.194c3.986,3.256,5.981,6.512,5.981,9.766
				c0,2.85-0.786,4.271-2.354,4.271c-1.572,0-2.936-1.098-4.091-3.295s-1.734-4.762-1.734-7.691c0-1.383,0.08-2.398,0.244-3.051
				c-4.721-3.01-9.521-4.517-14.404-4.517h-1.099c-0.156,0.652-0.706,0.977-1.644,0.977c-0.704,0-1.173-0.244-1.408-0.732
				l-1.953,0.244c-0.244,1.059-0.896,1.587-1.953,1.587l-1.465-0.489l-1.709,0.489c0.324,0.313,0.488,0.703,0.488,1.172
				c0,1.254-0.669,1.879-2.006,1.879c-1.423,0-2.26-0.568-2.51-1.709l-1.587,0.732c0,1.059-0.57,1.588-1.709,1.588l-0.977-0.244
				c-4.803,2.117-9.237,3.377-13.306,3.783c0,5.828,2.075,10.886,6.226,15.174c4.15,4.289,9.399,6.434,15.747,6.434
				c6.916,0,12.653-3.215,17.212-9.645l0.854-1.098l0.488,0.488c0,1.547-1.629,3.865-4.883,6.957
				c-3.256,3.094-7.977,4.639-14.16,4.639c-7.244,0-12.981-2.074-17.212-6.225c-4.232-4.15-6.348-9.725-6.348-16.725
				c-9.604,0-14.404-2.93-14.404-8.789c0-1.953,0.854-2.93,2.563-2.93c1.301,0,1.953,0.555,1.953,1.665
				c0,0.557-0.509,1.053-1.526,1.488c-1.019,0.435-1.526,0.931-1.526,1.485c0,1.791,1.251,3.277,3.757,4.456
				c2.506,1.181,5.566,1.771,9.182,1.771c0-9.594,2.399-17.604,7.202-24.027c-6.117-3.902-10.86-9.289-14.231-16.159
				c-3.372-6.87-5.056-14.208-5.056-22.015c0-10.568,2.848-20.203,8.545-28.904C35.153,7.956,43.292,1.003,53.872-4.2v-1.463
				c0-5.609,2.277-10.672,6.836-15.185c4.557-4.513,9.846-6.769,15.869-6.769c5.615,0,10.944,1.528,15.991,4.582
				c5.045,3.054,8.911,7.187,11.597,12.397c17.822,3.42,32.227,10.607,43.213,21.559c10.986,10.952,16.479,23.636,16.479,38.048
				c0,7.492-1.608,14.679-4.822,21.561c-3.216,6.882-7.589,12.357-13.123,16.428c8.057,3.91,14.484,9.447,19.287,16.613
				c4.801,7.166,7.203,14.78,7.203,22.841c0,11.074-4.059,20.56-12.173,28.46c-8.116,7.898-17.448,11.848-27.998,11.848
				c-2.111,0-3.614-0.082-4.507-0.244c0.65,1.789,0.977,3.785,0.977,5.982c0,6.754-2.567,12.287-7.7,16.602
				c-5.132,4.313-11.488,6.469-19.063,6.469c-9.371,0-16.867-3.051-22.488-9.154c-5.053,1.465-10.308,2.197-15.766,2.197
				c-8.475,0-15.808-1.73-22-5.188c-6.191-3.46-10.713-8.526-13.565-15.198L26.654,165.01z M112.588,72.725
				c1.709-0.488,2.888-0.895,3.54-1.221l0.244-0.488c0-0.813,0.263-1.526,0.793-2.136c0.528-0.61,1.16-0.916,1.892-0.916
				c1.545-1.057,2.319-1.871,2.319-2.441c0-0.471-0.204-0.845-0.61-1.12c-0.408-0.274-0.61-0.727-0.61-1.356
				c0-0.627,0.341-0.942,1.026-0.942c1.024,0,1.537,0.746,1.537,2.233c0,1.034-0.652,2.405-1.953,4.114l0.977,0.488l1.587-1.709
				c0-1.301,0.793-1.953,2.382-1.953c1.003,0,1.671,0.164,2.006,0.488l0.25-0.948c0-0.996,0.482-1.494,1.45-1.494l1.328,0.244
				c0.32-1.221,1.346-2.625,3.078-4.211c1.73-1.587,3.039-3.336,3.923-5.249c0.885-1.911,1.33-4.984,1.33-9.216
				c0-7.813-2.829-14.566-8.484-20.264c-5.657-5.695-12.39-8.545-20.203-8.545c-1.709,0-3.704,0.164-5.981,0.488
				c-2.686,5.209-5.535,7.813-8.545,7.813c-1.303,0-1.953-0.776-1.953-2.329c0-3.593,3.296-6.166,9.888-7.719
				c1.545-4.246,2.319-8.25,2.319-12.007c0-3.429-0.488-6.535-1.465-9.312c-5.779-0.98-11.639-1.471-17.578-1.471
				c-11.475,0-21.973,2.174-31.494,6.523c0.813,3.365,2.644,6.562,5.493,9.59c2.197-0.732,4.719-1.099,7.568-1.099
				c3.336,0,5.005,0.937,5.005,2.808c0,1.303-1.583,1.953-4.746,1.953c-2.514,0-4.948-0.65-7.299-1.953
				c-7.383,2.357-13.468,6.764-18.253,13.216c-4.786,6.455-7.177,13.617-7.177,21.49c0,4.872,0.895,8.627,2.686,11.265
				c1.789,2.638,4.23,3.956,7.324,3.956l1.709,0.549l-1.709,0.549c-7.568,0-11.353-5.655-11.353-16.968
				c0-7.73,2.298-14.994,6.897-21.79c4.597-6.794,10.639-11.372,18.127-13.733c-2.768-2.359-4.599-5.451-5.493-9.277
				C44.106,3.511,36.191,10.084,30.618,18.343c-5.575,8.261-8.362,17.355-8.362,27.283c0,7.732,1.648,14.893,4.944,21.484
				s7.954,11.719,13.977,15.381c7.08-8.789,15.827-13.184,26.245-13.184c4.883,0,8.606,0.778,11.169,2.334
				c2.563,1.557,3.845,3.439,3.845,5.65c0,2.949-2.489,5.611-7.465,7.986c-4.978,2.375-10.159,3.561-15.543,3.561
				c-6.203,0-11.954-1.343-17.256-4.028c-4.734,6.245-7.099,13.893-7.099,22.95c4.068-0.396,8.341-1.791,12.817-4.182
				c0-0.955,0.568-1.434,1.709-1.434c0.488,0,0.895,0.164,1.221,0.488l1.831-0.732c-0.732-0.65-1.099-1.261-1.099-1.832
				c0-1.465,0.772-2.197,2.319-2.197c1.465,0,2.197,0.814,2.197,2.441l1.953-0.732c0-1.383,0.629-2.075,1.888-2.075
				c0.864,0,1.416,0.408,1.652,1.221l2.197-0.244c0.234-0.732,0.782-1.099,1.644-1.099c0.782,0,1.251,0.286,1.408,0.854h0.854
				c4.883,0,9.846,1.425,14.893,4.272c1.139-8.625,7.324-16.559,18.555-23.803C106.158,75.453,109.982,73.458,112.588,72.725z
				 M28.119,168.063c-1.143,2.848-1.713,5.777-1.713,8.789c0,3.01-0.263,4.516-0.79,4.516c-0.45,0-0.675-1.906-0.675-5.722
				c0-3.084,0.61-6.655,1.831-10.714l0.732-2.313c3.498-7.955,8.85-14.388,16.052-19.295c7.202-4.912,14.832-7.367,22.888-7.367
				c3.662,0,7.141,0.686,10.437,2.057c3.296,1.367,6.104,3.443,8.423,6.226c2.319,2.778,3.723,4.169,4.211,4.169
				c3.336-1.629,5.899-3.295,7.69-5.004l0.732-0.488l2.075-2.076l0.732-1.221c4.639-6.348,6.958-16.764,6.958-31.25
				c0-4.719-0.916-10.211-2.747-16.479c-1.831-6.266-2.911-10.01-3.235-11.23l-0.488-1.831c-0.977-5.127-1.465-9.033-1.465-11.719
				c0-9.033,3.946-17.13,11.841-24.292c-5.638,2.117-11.072,3.174-16.3,3.174c-3.187,0-5.781-0.467-7.784-1.404
				c-2.003-0.935-4.146-2.298-6.434-4.089c-2.289-1.789-4.351-3.113-6.189-3.967c-1.838-0.854-4.146-1.282-6.923-1.282
				c-4.822,0-8.969,1.507-12.44,4.517c-3.473,3.012-5.209,6.918-5.209,11.719c0,3.338,1.057,6.165,3.174,8.484
				c2.115,2.319,4.639,3.479,7.568,3.479c2.604,0,4.719-0.643,6.348-1.93c1.627-1.286,2.441-2.936,2.441-4.948
				c0-0.4-0.164-1.326-0.488-2.773c0-0.482,0.206-0.725,0.622-0.725c0.805,0,1.209,1.099,1.209,3.296
				c0,2.605-0.998,4.681-2.991,6.226c-1.995,1.547-4.578,2.319-7.751,2.319c-3.256,0-6.104-1.322-8.545-3.967
				c-2.441-2.644-3.662-6.165-3.662-10.559c0-7.16,2.525-13.081,7.58-17.761c5.055-4.679,10.964-7.019,17.731-7.019
				c2.527,0,5.177,0.488,7.948,1.465c2.771,0.977,6.338,3.174,10.698,6.592c4.36,3.418,7.582,5.514,9.661,6.287
				c2.079,0.774,4.055,1.16,5.93,1.16c2.934,0,7.296-1.261,13.084-3.784l0.488,0.488l-0.977,0.61
				c-7.568,4.559-11.353,10.376-11.353,17.456c0,3.906,1.232,9.563,3.7,16.968l0.24,1.221c4.616,13.104,6.924,22.869,6.924,29.297
				c0,1.873-0.204,4.271-0.608,7.201l-0.244,1.588c-0.648,4.07-1.785,7.977-3.409,11.719l-0.486,1.221
				c-2.842,5.859-7.183,11.27-13.027,16.234l-0.975,1.1c-0.649,0.568-1.379,1.139-2.192,1.709l-0.851,0.488
				c-2.518,2.033-6.069,4.23-10.654,6.592c-4.585,2.359-8.989,5.695-13.208,10.01l-0.488-0.244c0-0.504,0.813-1.807,2.441-3.906
				c0-0.977-1.816-2.789-5.445-5.433c-3.632-2.646-7.404-3.968-11.32-3.968c-6.527,0-12.563,1.688-18.11,5.066
				c-5.548,3.376-9.708,7.914-12.481,13.611C28.689,166.76,28.445,167.33,28.119,168.063z M43.13,83.498
				c5.045,2.667,10.538,3.998,16.479,3.998c4.963,0,9.827-1.028,14.587-3.088s7.141-4.259,7.141-6.602
				c0-1.775-1.425-3.208-4.272-4.299c-2.85-1.091-5.901-1.637-9.155-1.637C57.98,71.871,49.722,75.747,43.13,83.498z
				 M102.944-10.893c-4.965-9.033-13.104-13.55-24.414-13.55c-5.859,0-11.211,1.89-16.052,5.67
				c-4.843,3.78-7.263,8.076-7.263,12.884v1.221c10.498-4.801,21.931-7.202,34.302-7.202C94.479-11.87,98.956-11.543,102.944-10.893
				z M63.271,8.76c1.465,0.977,3.214,1.465,5.249,1.465c2.115,0,3.174-0.324,3.174-0.977c0-0.813-0.814-1.221-2.441-1.221
				C67.218,8.028,65.225,8.272,63.271,8.76z M74.502,170.016c3.254-0.488,4.883-1.832,4.883-4.029c0-0.814-0.517-1.221-1.549-1.221
				C76.405,164.766,75.295,166.516,74.502,170.016z M89.15,114.352c0-3.336-1.669-6.266-5.005-8.789c0,2.361,0.345,4.76,1.038,7.201
				c0.69,2.441,1.484,3.662,2.38,3.662C88.62,116.426,89.15,115.736,89.15,114.352z M102.578,16.695
				c-4.803,0.896-7.202,2.483-7.202,4.761c0,1.059,0.406,1.587,1.221,1.587C98.386,23.042,100.381,20.927,102.578,16.695z
				 M99.038,144.137c1.057,1.383,2.888,2.563,5.493,3.539c-0.814-2.441-1.913-4.191-3.296-5.248l-1.221-1.588
				c-0.977-0.814-1.709-1.221-2.197-1.221c-0.652,0-0.977,0.324-0.977,0.977c0,0.406,0.366,1.18,1.099,2.32L99.038,144.137z
				 M124.551,165.254c-1.465-3.662-3.296-5.492-5.493-5.492c-1.629,0-2.441,0.488-2.441,1.465
				C116.616,163.016,119.26,164.357,124.551,165.254z M143.228,87.318c-4.883-2.159-9.726-3.241-14.526-3.241
				c-5.291,0-7.935,1.082-7.935,3.241c0,1.042,0.793,1.96,2.38,2.762s3.357,1.2,5.31,1.2
				C133.746,91.28,138.669,89.96,143.228,87.318z"/>
		</g>
	</g>
</g>
<g id="Camada_2">
	<g>
		<path d="M180.497,176.212v-1.328c2.627,0,3.94-0.914,3.94-2.742c0-0.521-0.117-1.109-0.352-1.762l-4.257-12.723h-14.71
			l-3.127,9.201c-0.781,2.323-1.172,4.006-1.172,5.05c0,1.932,1.208,2.924,3.622,2.976v1.328h-11.836v-1.328
			c1.694-0.234,3.01-0.796,3.949-1.684c0.938-0.887,1.89-2.728,2.854-5.521l12.671-37.796h4.716l13.304,39.479
			c0.782,2.323,1.597,3.823,2.443,4.503c0.848,0.678,2.209,1.018,4.086,1.018v1.328H180.497z M165.968,154.845h12.92l-6.496-19.414
			L165.968,154.845z"/>
		<path d="M216.083,155.001h-3.711v12.604c0,2.713,0.384,4.605,1.152,5.675c0.768,1.069,2.129,1.604,4.082,1.604v1.328h-16.484
			v-1.328c2.031,0,3.404-0.534,4.121-1.603c0.716-1.069,1.074-2.959,1.074-5.67v-28.736c0-2.711-0.352-4.581-1.055-5.61
			s-2.084-1.545-4.141-1.545v-1.328h18.789c4.635,0,8.34,1.127,11.113,3.379c2.773,2.253,4.16,5.124,4.16,8.613
			c0,5.625-3.151,9.375-9.453,11.25c1.384,0.886,2.735,2.103,4.054,3.651c1.318,1.55,3.047,4.124,5.185,7.724
			c2.397,3.992,4.271,6.609,5.621,7.853c1.349,1.244,2.75,1.918,4.203,2.022v1.328h-9.375c-1.928-2.32-4.258-5.725-6.992-10.213
			c-2.917-4.723-5.202-7.735-6.855-9.041C219.917,155.653,218.088,155.001,216.083,155.001z M217.177,132.149h-4.805v20.938h5.625
			c3.359,0,5.996-0.963,7.91-2.891c1.914-1.927,2.871-4.479,2.871-7.656c0-3.099-1.062-5.605-3.184-7.52
			C223.472,133.106,220.666,132.149,217.177,132.149z"/>
		<path d="M273.505,132.618h-6.953v35.228c0,2.764,0.338,4.627,1.016,5.592c0.677,0.964,1.992,1.446,3.945,1.446v1.328h-16.211
			v-1.328c2.016,0,3.386-0.554,4.109-1.661c0.724-1.108,1.086-2.979,1.086-5.611v-34.993h-6.641c-3.178,0-5.488,0.508-6.934,1.523
			s-2.26,2.695-2.441,5.039h-1.367v-10.508h1.367c1.224,1.146,3.516,1.719,6.875,1.719h24.023c3.463,0,5.885-0.572,7.266-1.719
			h1.445v10.508h-0.898c-0.573-2.525-1.596-4.251-3.066-5.176C278.654,133.081,276.447,132.618,273.505,132.618z"/>
	</g>
	<g>
		<path d="M186.62,95.306c0-6.797,2.344-12.467,7.031-17.012c4.688-4.544,10.533-6.816,17.539-6.816
			c6.797,0,12.545,2.305,17.246,6.914c4.7,4.609,7.051,10.248,7.051,16.914c0,6.797-2.37,12.539-7.109,17.227
			c-4.74,4.688-10.534,7.031-17.383,7.031c-6.823,0-12.592-2.344-17.305-7.031C188.977,107.845,186.62,102.103,186.62,95.306z
			 M193.651,95.384c0,6.693,1.588,12.104,4.766,16.23c3.177,4.128,7.344,6.191,12.5,6.191c5.208,0,9.434-2.109,12.676-6.328
			s4.863-9.479,4.863-15.781c0-6.771-1.589-12.207-4.766-16.309c-3.178-4.102-7.292-6.152-12.344-6.152
			c-5.365,0-9.655,2.019-12.871,6.055C195.259,83.327,193.651,88.691,193.651,95.384z"/>
		<path d="M257.909,97.22h-3.711v12.604c0,2.713,0.384,4.605,1.152,5.675c0.768,1.069,2.129,1.604,4.082,1.604v1.328h-16.484v-1.328
			c2.031,0,3.404-0.534,4.121-1.603c0.716-1.069,1.074-2.959,1.074-5.67V81.094c0-2.711-0.352-4.581-1.055-5.61
			s-2.084-1.545-4.141-1.545V72.61h18.789c4.635,0,8.34,1.127,11.113,3.379c2.773,2.253,4.16,5.124,4.16,8.613
			c0,5.625-3.151,9.375-9.453,11.25c1.384,0.886,2.735,2.103,4.054,3.651c1.318,1.55,3.047,4.124,5.185,7.724
			c2.397,3.992,4.271,6.609,5.621,7.853c1.349,1.244,2.75,1.918,4.203,2.022v1.328h-9.375c-1.928-2.32-4.258-5.725-6.992-10.213
			c-2.917-4.723-5.202-7.735-6.855-9.041C261.743,97.872,259.914,97.22,257.909,97.22z M259.003,74.368h-4.805v20.938h5.625
			c3.359,0,5.996-0.963,7.91-2.891c1.914-1.927,2.871-4.479,2.871-7.656c0-3.099-1.062-5.605-3.184-7.52
			C265.298,75.325,262.492,74.368,259.003,74.368z"/>
		<path d="M306.386,72.61v1.328c-1.953,0-3.308,0.535-4.063,1.604c-0.756,1.068-1.133,2.971-1.133,5.708v28.58
			c0,2.737,0.377,4.634,1.133,5.689c0.755,1.056,2.109,1.583,4.063,1.583v1.328h-16.484v-1.328c2.005,0,3.372-0.521,4.102-1.563
			c0.729-1.043,1.094-2.946,1.094-5.709V81.25c0-2.815-0.358-4.737-1.074-5.767c-0.717-1.029-2.09-1.545-4.121-1.545V72.61H306.386z
			"/>
	</g>
</g>
</svg>
