<?xml version="1.0" encoding="utf-8"?>
<!-- Generator: Adobe Illustrator 18.0.0, SVG Export Plug-In . SVG Version: 6.00 Build 0)  -->
<!DOCTYPE svg PUBLIC "-//W3C//DTD SVG 1.1 Tiny//EN" "http://www.w3.org/Graphics/SVG/1.1/DTD/svg11-tiny.dtd">
<svg version="1.1" baseProfile="tiny" id="圖層_1"
	 xmlns="http://www.w3.org/2000/svg" xmlns:xlink="http://www.w3.org/1999/xlink" x="0px" y="0px" viewBox="481 110 539 123.2"
	 xml:space="preserve">
<g>
	<path d="M743.5,188.3c0.1-0.1,1.1-1.6,0.4-1.6c0-0.1-1.1-0.7-1.7-0.7c-0.6,0-1.2,0-1.7-0.1c-0.4-0.1-7.6-2.1-7.8-2.1
		c-0.6-0.1-1.1-0.1-1.1,0.7c0,0-1.4,4.3-0.1,0.1c0.2-0.6-1.9,5.9-3.4,7.8c0,0.2-6.1,7.3-10,9.3c-0.6,0.7-1.4,0.5-2.2,0.6
		c-0.7,0.1-1.3-0.1-1.9-0.2c-0.3-0.1-0.6-0.5-1.1-0.5c-0.4,0-3.1-1.9-3.4-2.1c-0.3-0.2-0.5-0.1-0.6,0.1c-0.2,0.3-3.2,2.7-3.7,2.9
		c-0.1,0.1-0.2,0.1-0.3,0.2c-0.1,0.5-3.7,2-4.5,1.6c0,0-1.4-0.2-2,0c-0.1,0-0.2,0-0.3-0.1c-0.2-0.3-1.8-0.9-2.1-1.2
		c-0.3-0.4-0.9-0.6-1.2-1c-0.3-0.3-0.4-2.2-0.4-2.3c0.2-0.7,1.3-8.4,1.3-11.2c0-0.5-0.3-0.4-0.6-0.4c0-0.3-1.6,1-1.8,1.2
		c-0.4,0.4-3.5,3.3-3.7,3.6c-0.3,0.4-1.6,2.2-1.8,2.6c-0.2,0.4-2.2,4.7-2.6,5.7c-0.1,0.2-0.3,0.2-0.5,0.2c-0.7,0.1-1.4-0.2-2.1-0.1
		c-0.3,0-0.5-0.2-0.4-0.5c0-0.3,0.1-0.6,0-0.8c-0.1-0.4,0.4-1.9,0.6-2.2c0.2-0.3,0.9-3.5,0.7-3.9c-0.2-0.4-0.8-0.5-1-0.1
		c-0.2,0.3-0.5,0.6-0.7,0.9l0,0c-0.3,0-3,2.7-3.9,3.4c-1.8,1.4-5.8,4-5.9,4.3c-0.1,0.1-4.1,2.4-8.6,2.4c-1.1,0.2-2-0.2-3.1-0.3
		c-0.8-0.1-5.3-2.8-5.5-3.2c-0.7-0.5-4.5-7.7-4.8-8.1c-0.2-0.3-0.3-0.5-0.3-0.5c-0.3,0.1-0.7,0-0.9,0.3c-1.5,1.8-5.9,9.6-7.4,10
		c-0.4,0.3-0.7,0.4-1.2,0.7c-1.9,1.1-5.2,1.1-5.9,0.9c-0.4-0.1-1.6-0.4-1.7-0.5c-1.4-0.7-1.8-0.8-2.9-2.5c-0.7-1-2.4-0.5-2.5-0.4
		c-6,4.5-14.4,3.3-15.4,2.2c-0.2-0.2-0.5-0.2-0.7-0.4c-0.3-0.5-0.7-0.9-1.1-1.4c-0.9-1.4,0.5-3.7,0.5-4.4c0-0.1,0.1-0.3-0.1-0.3
		c-0.1-0.1-0.2,0-0.3,0.1c-0.1,0.3-0.4,0.4-0.7,0.5c-0.4,0.2-19.4,12.1-29.4,11.9c-11.9-0.2-19.2-5-19.7-8.9c-0.2-1.2-2.7-7.2,18-20
		c0.4-0.2,0.5-0.3,0.3-0.8c-0.2-0.4-0.5-0.5-0.7-0.7c-4.8-4.5-6.3-12-6.6-12.9c-2.3-9.9,2.7-14.9,7.2-18.7c2.5-2.1,6.3-3.8,7.1-4.4
		c5.8-4.5,22-4.9,22.8-4.8c0.9-0.1,4.1-0.1,7.7,0.7c2.2,0.6,5.2,2.7,5.4,2.9c1.9,1.3,2.3,2.6,3,3.6c0,0,1.1,2.2,0.8,5
		c0,2.7-1.4,4.3-1.7,4.6c-0.1,0.1-2,1.8-2.1,1.8c-0.3,0.2-1.8,0.6-4.1,0.6c-0.6,0-1.5,0-2-0.1c0,0-0.4,0.1-1.2-0.5
		c-0.1-0.1-1.2-1.3-1.3-1.5c-0.2-0.4,0-0.8,0.4-0.8c0.8,0.1,1.5-0.1,2.3,0.3c0.5,0.2,1.1,0.2,1.7,0.1c0.3,0,1.6-0.4,1.8-0.7
		c0.2-0.3,1.5-1.3,1.8-1.9c1.4-3.1,0.3-5.3-0.2-6.7c0,0-0.6-0.7-0.7-1c-0.2-0.4-1.9-2.3-3.2-2.8c-0.1-0.1-1.8-0.9-2.4-0.9
		c-0.6-0.1-4.4-0.5-5.9-0.5c-2.4,0.1-41.4,0.8-33.4,29.3c0.2,0.7,3.4,6.3,4.7,7.1c0.9,0.6,1.3,1.3,2.3,1.5c0.2,0,1.4-0.8,1.6-1
		c0.4-0.5,6.4-4.1,9.6-4.9c2.8-0.7,7.1,1,7.7,1.5c0.4,0.3,2.5,3.4,2.4,4.3c-0.5,3.8-3.6,5.1-4.2,5.4c-0.6,0.3-5,1.3-5.5,1.4
		c-3.9,0.8-10.3-2.4-11.1-2.8c-0.7-0.3-1.3-0.3-2-0.1c-19,12.3-16,17.1-16.5,18c0,0.1,0.3,1.7,0.3,1.8c0.8,1.4,4.8,5.2,14.8,5.3
		c9-0.3,29.8-12.7,30.5-12.7c0.1,0,0.3-0.1,0.4-0.2c0.4-0.5,0.9-0.8,1.3-1.1c0.5-0.3,4.8-4.2,5.3-4.7c0.8-0.8,1.6-1.7,2.5-2.5
		c0.7-0.7,1.3-1.4,2-1.9c2.8-2.1,4.7-3.3,6.9-3c2.8,0.7,1.9,1.6,0.9,2.7c-3.7,1.5-6.1,5.7-6.3,5.7c-0.8,0.6-3.6,2.2-4.3,2.7
		c-0.9,0.7-1.7,1.7-2.5,2.6c-2.6,3.5-2.3,5.7-2.3,5.7c0,0.8,1,1.4,1.2,1.5c2.3,1.4,7.3-0.4,10-2.4c0.6-0.1,1.1-0.6,1.5-1
		c0.7-0.6,1.5-1.2,2.2-1.7c0.7-0.6,4.2-3.5,4.5-4c0.3-0.6,2.6-2.6,3-3.2c0.2-0.2,0.4-0.4,0.6-0.6c0.5-0.4,4.3-5,4.4-5
		c0.8-0.3,0.7-0.2,1.1-0.4c0.5-0.3,1.2-0.4,1.8-0.2c0.3,0.1,0.9,0.3,0.7,0.7c-0.3,0.7-0.2,1.5-0.8,2.2c-0.6,0.6-1.1,1.1-1.6,1.8
		c-0.3,0.4-0.6,0.7-1,1c-1.5,1.1-4.7,4.9-5.4,5.3c-0.3,0.2-0.6,0.5-0.6,0.9c0,0.2-0.1,0.5-0.5,0.6c-0.2,0-0.2,0.2-0.2,0.4
		c-0.1,0.5-0.2,0.9-0.5,1.3c-0.1,0.2-0.8,1.6,0.2,3c0.1,0.1,0.1,0.3,0.1,0.5c0.2,0.5,0.7,0.4,1,0.7c0.4,0.4,0.9,0.5,1.5,0.3
		c0.7-0.2,1.5-0.2,2.1-0.8c0.2-0.2,0.4-0.3,0.7-0.5c0.7-0.6,5.7-8.7,6.8-9.5c1.7-2.1,3.6-3.3,4.4-4c2.5-2,8.4-3.6,8.7-3.6
		c0.3,0.1,3.5-0.2,9.7,0.6c0.6,0,1.2,0.1,1.7,0.5c0.2,0.1,0.4,0.2,0.6,0.2c0.4,0.1,0.7,1.1,0.4,1.2c-0.4,0.2-0.7,0.7-1.3,0.5
		c-0.6-0.1-8.7,1.1-9.2,1.2c-0.3,0-5.9,1.4-6.7,2.2c-0.2,0.2-0.4,0.4-0.4,0.6c-0.9,2.1,2.1,7.2,2.4,7.3c1.8,3,5.6,4,6.3,4.1
		c0.4,0.1,0.9,0.1,1.3,0.1c3.8-0.6,9.2-4.6,9.3-4.7c1.1-0.9,10.4-9.1,10.8-10.8c0.1-1.2,0-2.4,0.1-3.6c0.1-0.8,0.8-8.7,1.4-11.2
		c0.5-2.1,2.9-11,6.7-16.4c1.7-2.4,5.6-5.7,6.3-6.1c0.1,0,5.1-2.6,5.5-2.8c0.3-0.2,0.6-0.2,0.9-0.2c2.3-0.2,5.4,2.1,5.6,3.6
		c-0.2,0.9-0.1,2-0.3,2.1c-0.5,0.3-3.2,5.6-3.4,6.1c-3,7.9-17.8,27.7-19.1,28.6c-1,0.9-0.9,1.1-0.9,1.1c0,0.8-0.1,3,0.3,2.8
		c0.7-0.2,1.5-0.9,1.9-1.4c0.6-0.7,1.1-1.4,1.9-2c0.5-0.3,5.2-3.5,5.7-2.7c0,0,0.1,0,0.1,0c0.6,0,1.1,0.3,1.7,0.4
		c0.3,0.1,0.4,0.2,0.3,0.4c-0.1,0.4,0,0.9,0,1.3c-0.1,1.2-1.2,5.9-1.4,7.2c-0.3,1.4-0.2,6.4,0,6.9c0.3,0.5,1.5,1.2,1.8,1.1
		c0.2,0,2.1-0.4,2.4-0.7c0.4-0.4,4.9-4.1,5-4.4c0.1-0.2,1-1,1.1-1.4c0.2-0.5,2.4-5.7,3-5.8c0.1,0,0.2,0,0.2-0.1
		c0.1-0.4,0.4-0.3,0.6-0.3c0.4,0.1,3.5,0.3,3.7,0.2c0,0,0,0,0,0c0,0.4,0.5,0.5,0.5,0.9c0,0.1,0,0.2,0,0.3c-0.5,0.3-2.4,2.4-2.8,3
		c-0.3,0.5-0.6,1-0.6,1.7c0,0.3-0.1,0.6,0,1c0.2,0.5,0.8,2.3,0.7,2.7c0,0.1,0.2,0.3,0.3,0.3c0.8,0,1.6-0.3,2.4-0.2
		c0,0,0.1,0,0.1-0.1c0.1-0.5,4-2.5,4.4-2.9c0.5-0.5,4-4.3,4.1-5.2c0-0.1,0.2-0.1,0.2-0.2c0.3-0.5,2.6-4.7,2.6-4.9
		c-0.1-0.2,1.1-3.6,1.1-3.9c0-0.3-0.3-0.3-0.5-0.3c-0.1,0-3.9-4.3-3.9-4.4c-0.8-1.7,1-4.1,1.2-4.1c0.7-0.4,0.9-0.6,3.3,0.7
		c0,0.1,0,0.2,0,0.3c0,0.8-0.5,1.3-1,1.8c-0.7,0.6-0.3,1.6-0.2,1.9c0.1,0.3,1.5,0.5,1.8,0.5c0.3,0,3.5,2.4,3.6,2.9
		c0,0.1,1.2,0.5,1.6,0.8c0.3,0.2,5.9,1.7,6.4,1.7c0.2,0,0.4,0.2,0.7,0.1c0.9-0.1,1.7,0,2.6,0c0.6,0,3.7,0.5,4,0.5
		c0.4,0,0.5,0.2,0.7,0.5c0.1,0.3,0.1,0.6,0.2,0.8c0,0.1,0,0.1,0,0.2c-0.5,0.5-0.7,1.1-1.1,1.6c-0.1,0.1,0,0.3-0.2,0.2
		c-0.6-0.2-5.7,5.5-5.9,5.9c-0.2,0.4-0.3,0.9-0.7,1.3c-0.4,0.5-1.6,1.5-1.2,3.2c0.1,0.5,0.1,1.1,0.5,1.3c0.9,0.8,8.8-1.6,9-1.8
		c0,0,0.1,0,0-0.1c0.5-0.2,3.1-2.7,3.5-2.9c0.1,0,0.1-0.2,0.1-0.2c0,0,0,0,0,0c0.2,0,0.3-0.1,0.3-0.4l0,0c0,0,0,0,0,0
		c0.7-0.4,2.2-3.7,2.4-4c0.1-0.2,1.6-1.2,1.8-1.2c0.2,0,0.5,0.1,0.7,0.2c0.1,0.1,0.3,0.1,0.4,0c0.3-0.2,0.5-0.2,0.9-0.1
		c0.5,0.1,0.7,0.5,1.1,0.6c0.4,0.1,0.4,0.3,0.4,0.6c-0.1,0.6-0.4,1.2-1,1.6c-0.2,0.1-0.4,0.2-0.5,0.5c-0.2,0.6-1.9,2.2-2.2,2.7
		c-0.3,0.7-0.8,1.4-0.8,2.1c0,0.9-0.5,1.8,0.3,2.6c0.1,0.1,0.1,0.2,0.1,0.3c-0.1,1.2,0.7,1.9,1.4,2.7c0.4,0.5,0.7,1.1,1.5,1.1
		c0,0,0,0,0,0c0.2,0.5,3.8-1.4,3.9-1.7c0-0.1,0.1-0.2,0.3-0.2c0.8-0.1,1-0.9,1.4-1.4c0.4-0.4,1.7-3.3,1.8-3.6
		c0.2-0.5,0.2-0.9-0.3-1.1c-0.2-0.1-0.1-0.3-0.2-0.4c-0.6,0.6-0.6,0.6-1.3,0.1c0,0-0.1,0-0.1-0.1c-0.7-0.2-1.9-3.2-2.1-3.5
		c-0.2-0.2-0.3-0.5,0-0.6c0.2-0.8,1.9-3.2,2.7-3.9c0.8-0.8,2.7-1.2,3.1-1.6c0.1-0.1,0.3-0.1,0.3,0c0.5,0.5,1.7,0.2,1.8,0.4
		c0.2-0.1,0.5-0.2,0.6-0.1c0.5,0.6,2.1,1.7,2.1,2c0,0.1-0.2,1.5-0.2,2.1c0,0.4-0.2,1.7-0.3,1.9c-0.2,0.2-0.2,0.5,0,0.6
		c0.2,0.2,0.5,0.1,0.6-0.1c0.2-0.2,0.4-0.3,0.7-0.2c0.3,0,0.5-0.1,0.7-0.2c0.7-0.3,1.1-0.9,1.7-1.4c0.2-0.2,0.5-0.5,0.5-0.8
		c0-0.8,0.4-1.4,0.4-2.2c0.2-0.1,0.4-0.3,0.3-0.6c-0.1-0.3,0.2-0.2,0.3-0.2c0.4,0.1,0.8,0.3,1.2,0.5c0,0,0,0,0,0
		c0,0.3,0.4,0.4,0.4,0.7c0.1,1.3-0.1,2.5-1,3.5c-0.1,0.1-0.9,1.9-1.1,2.1c-0.5,0.7-4.6,2.7-4.7,2.5c-0.2-0.2-0.3-0.1-0.4,0
		c-0.2,0.1-0.3,0.2-0.5,0.1c-0.4,0-0.6,0.2-0.9,0.4c-0.6,0.6-1,1.4-1.7,1.8c-0.1,0.1-0.1,0.2-0.2,0.3c-0.3,0.7-0.9,1.2-0.8,2.1
		c0,0.1-0.1,0.2-0.2,0.2c-0.4,0.5-0.9,0.9-1.2,1.5c-0.1,0.2-0.2,0.4-0.5,0.4c-0.2,0-2.1,1-2.3,1.1c-0.6,0.4-2.8,1.6-3.2,1.7
		c-0.7,0.2-1.4-0.1-2.1,0c-0.1,0-0.2,0-0.3-0.1c-0.5-0.7-1.5-0.6-2.1-1c-0.4-0.2-0.7-0.4-1-0.7c-0.1-0.1-0.1-0.3-0.2-0.4
		c-0.8-0.6-2.9-4.2-2.4-5.1c-0.4,0.3-0.5,0.4-1.3,0.2c-0.3,0.3-4.3,1.9-5,2.4c-0.2,0.1-0.4,0.2-0.6,0.1c-0.2,0-0.4,0-0.6,0.1
		c-2.9,1.1-4.8,0.6-6.4,0c-0.3-0.1-2.7-1.4-2.9-1.9c-0.1-0.2-0.2-0.4-0.5-0.5c0,0,0,0,0,0c-0.1-0.6,0.1-1.1,0-1.7
		c-0.1-0.6,0.1-1.2,0.5-1.7C737.1,195.7,743.4,188.5,743.5,188.3z M700.7,165.1c0.4-0.6,0.8-1.2,1.3-1.8c0.5-0.2,4.4-8.6,4.4-8.8
		c0.2-1.4,2.4-3.5,1.2-5.2c-0.5-0.7-3-0.2-3.2-0.1c-0.4,0.1-2.2,1-3.2,1.4c-4.2,1.4-9,13.1-9.2,13.6c-1.9,5.5-4.2,14.5-3.1,16.9
		c0.1,0.8,0.5,0.2,0.7,0.1C691.3,179.9,700.4,165.5,700.7,165.1z M600,177.7c-0.9-3.2-2.6-3.4-4.6-3.3c-3.5,0.2-9.1,4.1-9.9,4.4
		c-0.9,0.3-1.2,1-0.9,1.8c0.6,1.7,6.6,2.8,7.8,2.8c0.6-0.1,1-0.2,1.5-0.3c0.6-0.2,2.7-0.7,3.1-0.9
		C597.9,181.9,600.6,179.8,600,177.7z M771.3,189.8c-0.1-0.2-0.3-0.3-0.4-0.5c-0.1-0.5-0.7-0.5-1-0.7c-0.1-0.1-0.1,0.1-0.2,0.2
		c-0.7,0.3-2.7,2.8-2.6,3c0.1,0.4-0.1,0.9,0.3,1.3c0.2,0.2,0.4,0.5,0.6,0.7c0.3,0.3,0.6,0.6,0.9,0.6c0.4-0.1,0.9-0.4,1.1-0.8
		C770.2,193.1,771.5,190,771.3,189.8z"/>
	<path d="M854.4,191.2c0.5-0.7,2.9-4.2,3.5-4.3c0.1,0,7.5-4.1,8.8-3.7c0.3,0.1,0.5,0.3,0.7,0.4c1,0.4,1.5,0.9,2.8,1.5
		c0.4,0.5,0.9,0.8,1.3,1.2c0.5,0.5,1,0.4,1.6-0.1c0.5-0.5,8.7-12.6,9-12.7c0.6-0.3,1.4-0.4,1.9,0c0.4,0.3,0.7,0.4,1.1,0.6
		c0.4,0.2,0.2,0.7,0,1c-0.2,0.3-8.7,14.1-8.9,14.9c-0.3,1.1-0.6,4.6-0.3,5c0.2,0.1,0.6,0.7,0.7,0.7c0.8,0.1,1.3-0.2,1.7-0.9
		c0.2-0.3,0.5-0.5,0.7-0.7c1-0.8,8-6.8,8.8-7.4c0.1-0.1,0.2-0.2,0.2-0.3c0.2-0.3,4.9-1.8,6.7-1.6c0.5,0.1,1.1,0.4,1.7,0.6
		c1,0.3,2.1,0.5,3,1c0.6,0.4,4.8,2.3,5.5,2.7c0.3,0.2,3.1,1.5,3.4,1.7c0.2,0.1,0.5,0.3,0.7,0.3c0.9,0.1,1.2,0.7,1.2,1.4
		c0.1,1,0.5,1.9,0.7,2.8c0.1,0.4,0.6,0.3,0.8,0.2c1.1-0.4,2.2-0.5,3.3-0.9c0.8-0.2,1.6-0.3,2.4-0.4c0.3-0.1,0.7,0,1,0.1
		c0.6,0.3,1.2,0.4,1.9,0.5c0.4,0.1,0.9,0.7,0.9,1.2c0,0.5-0.2,0.8-0.8,0.9c-1.1,0.2-2.3,0.3-3.4,0.6c-0.8,0.2-1.5,0.3-2.3,0.6
		c-0.3,0.1-0.5,0.1-0.8,0.1c-0.9-0.1-1.7,0.1-2.6,0.1c-0.6,0-1.1-0.1-1.6-0.4c-0.9-0.4-1.8-0.8-2.2-1.8c-0.1-0.3-0.4-0.3-0.7-0.3
		c-0.6,0.1-1.3,0-1.6,0.8c-0.1,0.2-0.2,0.3-0.4,0.4c-0.5,0.2-2.2,1.2-2.4,1.2c-0.7,0.1-1.4,0.2-2.1,0.4c-0.8,0.2-3.9-0.4-4.5-0.4
		c-0.2,0-2.5-1.3-3.2-1.8c-0.5-0.4-0.9-1-1.2-1.5c-0.3-0.5-0.3-0.5-0.4-0.9c-0.3-1.4-0.4-2.3-0.4-2.4c0-0.4,0.8-1.2,1-1.3
		c0.4-0.1,1.9-0.7,2.3-0.7c0.3,0,2.2-0.6,2.7-0.8c0.2-0.1,0.3-0.2,0.4-0.4c0.1-0.3-0.2-0.2-0.3-0.3c-0.5-0.6-1.3-0.6-1.9-0.8
		c0,0-0.1,0-0.1,0c-0.8,0.5-1.7,0.1-2.6,0.4c-0.1,0-0.1,0-0.2,0.1c-1.6,0.6-3.7,2.3-4.1,2.7c-0.7,0.7-8.2,7.8-8.8,8
		c-1.3,0.4-2.5,0.3-3.8,0.1c-1-0.2-2-0.6-2.7-1.4c-0.5-0.5-1.2-0.7-2-0.6c-1.1,0.1-1.8,0.6-2.6,1.3c-0.5,0.5-3.6,3.2-4.5,3.4
		c-0.3,0.1-0.7,0.1-1,0.1c-0.4,0-4.2,0.1-4.7,0.1c-0.7-0.1-1.3-0.8-2-0.9c-0.2,0-0.2-0.1-0.3-0.3c-0.1-0.3-1.1-1.4-1.3-1.5
		c-0.2-0.1-1.1-3.6-1-4.2C853.3,194.2,854,191.7,854.4,191.2z M896.7,196c0.4,0.1,0.9,0.2,1.3,0c0.4-0.2,1.9-0.2,2.1-0.4
		c0.5-0.4,3.2-2.2,3.5-3.2c0-0.6,0-0.5,0-0.7c-0.4-0.2-0.7-0.3-1.2-0.3c-0.3,0-0.7,0-1,0c-0.8-0.1-4.6,1.1-5.3,1.2c-0.3,0-1,0-1,0.7
		c0,0.7,0.2,1.2,0.6,1.8C896,195.3,896.6,196,896.7,196z M859.4,198.8c1,0.1,1.7-0.7,2.5-0.7c0,0,0-0.1,0.1-0.1
		c0.2-0.3,1.8-1.5,2.2-1.9c0.7-0.7,1.5-1.3,2.1-2.2c0.2-0.3,1.4-1.5,1.8-1.8c0.3-0.2,0.3-0.5,0.6-0.7c0.6-0.3,0.8-1.1,0.5-1.7
		c-0.1-0.3-0.4-0.7-0.4-1c-0.3-1-1.7-2.5-2.6-3c-0.1,0.1-1.2,0-1.6,0.1c-0.1,0-0.2,0.1-0.3,0.1c-0.6,0-2.3,1-2.5,1.2
		c-0.6,0.5-1.2,1-1.5,1.7c-0.2,0.5-0.5,0.8-0.9,1.1c-0.2,0.2-1.4,2.3-1.5,2.4c-0.1,0.1-0.2,0.2-0.2,0.3c-0.3,0.8-0.4,2.7-0.6,3.3
		c-0.1,0.3,0.1,0.7,0.1,1.1C857.3,197.7,859,198.7,859.4,198.8z"/>
	<path d="M931,201.2c-0.4,0-0.7-0.1-1-0.4c-0.2-0.3-1.2-1.4-1.2-1.6c-0.1-0.5,0.3-0.9,0.8-0.9c0.7,0.1,1.3,0.2,2,0.4
		c0.4,0.1,0.5,0.6,0.6,0.9C932.6,200.7,932.1,201.3,931,201.2z"/>
	<path d="M824.5,173.7c9.8-2,9.4-6.7,7.7-10.5c-0.5-1.1-10.9-8.2-16.4,5.4c-4.2,10.3,1.3,18.1,16.1,16.2c23-3,29.8-16.7,28.9-22.3
		c-3.9-24.1-25.2-28.2-35.7-27.2c-8.9,0.8-30.9,8.4-35,24.4c-5.7,22.7-5.3,38.8,28.6,42.5c11.8,1.3,16.1,0.1,18.2-1.1
		c1.7-0.9,2.1-1.1,3.7-1.5c0.2-0.1,0.7-0.2,0.9-0.3c0.9-0.4,0.4,1.6-1.2,3c-3.8,3.1-15.9,6.8-42.1-2.4c0,0-6.9-3.7-8.6-5.7
		c-14.8-17.8-0.8-40-0.7-40.1c15.6-21,31.7-20.9,35.6-21c22.9-0.5,29.9,10.6,32.7,14.1c6.1,7.7,9.8,14.7,7.6,19.5
		c-7.6,16.8-17,19.5-24.4,20.3c-16.3,1.8-24.7-0.5-28.1-7.5c-2.2-4.5,0.4-16,5.7-19.3c3.3-2.1,8.9-6.1,15.8,0.4
		c8.2,7.8,0.1,12.5-2.5,13.2c-1.3,0.3-2.5,0.9-3.8,0.9c-1.2-0.1-2.6-0.5-3-0.7C824.3,174,824.5,173.7,824.5,173.7z"/>
	<g>
		<path d="M639.7,168.6c-0.2,0.1-0.4,0.2-0.4,0.4c0,0.1,0.1,0.1,0.2,0.1c0.2,0,0.3-0.2,0.4-0.3C639.9,168.6,639.8,168.6,639.7,168.6
			z"/>
		<path d="M655.5,164.6c-0.1,0.2,0.1,0.4,0.4,0.4c0.1,0,0.2-0.1,0.1-0.2C656,164.6,655.6,164.4,655.5,164.6z"/>
		<path d="M658.7,163.2c-0.1-0.3-0.4-0.3-0.6-0.2c-0.3,0.2-1.2-0.1-1.9-0.3c-0.7-0.2-1,0-1.2,0.2c-0.3,0.2-0.7,1.1-0.8,1.4
			c-0.1,0.5-0.4,1.8-0.3,1.9c0.2,0.3-0.3,1,0.4,1c0.4,0,0.8-0.2,1.2-0.3c0.2,0,0.3-0.1,0.3-0.3c0.2-1,0.9-1.1,1.7-1.2
			c0.5-0.1,1-0.4,1.5-0.3c0,0,0.2-0.1,0.2-0.2c0.1-0.3,0.2-0.6,0.2-0.9C659.4,163.6,658.9,163.5,658.7,163.2z"/>
		<path d="M640.1,167.9c-0.1,0-1.3-0.4-1.5-1c0,0-0.1-0.1-0.1-0.1c-0.1,0-0.2,0-0.2,0c-0.3,0.2-0.3,0.6-0.8,0.6
			c-0.2,0-0.2,0.2-0.3,0.3c-0.1,0.3-0.2,0.6-0.4,0.8c-0.1,0.1-0.1,0.3,0,0.4c0.4,0.1,0.6,0.4,0.8,0.6c0.1,0.1,1.1-0.1,1.4,0.5
			c0.2,0,0.5-0.1,0.7-0.1c0.4-0.1,0.4-1,0.5-1.1c0.8-0.2,0.4-0.6,0.2-0.9C640.4,168,640.3,167.9,640.1,167.9z"/>
	</g>
</g>
</svg>
